<svg xmlns="http://www.w3.org/2000/svg" width="256" height="256" viewBox="0 0 256 256" role="img" aria-labelledby="title desc">
<title>Indigenous Rights &amp; Tribal Sovereignty</title><desc>Indigenous Rights &amp; Tribal Sovereignty issue icon for Blue Voter Guide.</desc>
<circle cx="128" cy="128" r="116" fill="#fff" stroke="#8B5E3C" stroke-width="8"/>
<g fill="none" stroke="#8B5E3C" stroke-width="11" stroke-linecap="round" stroke-linejoin="round">
  <path d="M118 193 C91 158 88 111 109 73 C121 52 141 43 160 50 C180 57 190 77 184 100 C176 132 146 156 118 193 Z" fill="#fff"/>
  <path d="M118 193 C130 142 149 94 178 63"/>
  <path d="M129 148 L96 139"/>
  <path d="M140 121 L101 111"/>
  <path d="M154 95 L117 87"/>
  <path d="M111 172 L92 165"/>
  <path d="M134 141 L159 151"/>
  <path d="M148 114 L174 125"/>
  <path d="M162 88 L184 96"/>
</g>
<circle cx="83" cy="84" r="10" fill="#8B5E3C"/>
</svg>
