<svg xmlns="http://www.w3.org/2000/svg" width="256" height="256" viewBox="0 0 256 256" role="img" aria-labelledby="title desc">
<title>Labor &amp; Workers Rights</title><desc>Labor &amp; Workers Rights issue icon for Blue Voter Guide.</desc>
<circle cx="128" cy="128" r="116" fill="#fff" stroke="#5640A3" stroke-width="8"/>
<g fill="#5640A3" stroke="#5640A3" stroke-linecap="round" stroke-linejoin="round"><path d="M96 158 L96 100 C96 88 112 88 112 100 L112 137"/><path d="M112 136 L112 86 C112 74 128 74 128 86 L128 136"/><path d="M128 136 L128 94 C128 82 144 82 144 94 L144 140"/><path d="M144 141 L144 108 C144 96 160 98 160 110 L160 153 C160 181 139 196 113 192 C88 189 73 169 70 145 L65 119 C63 108 79 104 83 115 L96 158 Z"/></g>
</svg>